<mxfile host="app.diagrams.net" agent="Mozilla/5.0 (Windows NT 10.0; Win64; x64) AppleWebKit/537.36 (KHTML, like Gecko) Chrome/136.0.0.0 Safari/537.36" version="27.1.1">
  <diagram name="Page-1" id="mlR0g0Hz-1zgvReeXt2-">
    <mxGraphModel grid="0" page="1" gridSize="10" guides="1" tooltips="1" connect="1" arrows="1" fold="1" pageScale="1" pageWidth="850" pageHeight="1100" math="0" shadow="0">
      <root>
        <mxCell id="0" />
        <mxCell id="1" parent="0" />
        <mxCell id="c-5bs4Yxj_1SEvocVYtk-2" value="&lt;h1&gt;&lt;i&gt;&lt;font style=&quot;font-size: 34px;&quot; face=&quot;walbaum Display&quot;&gt;REAL TALK FOR SOUTH AUCKLAND&lt;/font&gt;&lt;/i&gt;&lt;/h1&gt;" style="shape=callout;whiteSpace=wrap;html=1;perimeter=calloutPerimeter;size=34;position=0.45;base=29;" vertex="1" parent="1">
          <mxGeometry x="5" y="5" width="837" height="120" as="geometry" />
        </mxCell>
        <mxCell id="gvaRYK3WcbsX880E4bqF-1" value="" style="ellipse;whiteSpace=wrap;html=1;" vertex="1" parent="1">
          <mxGeometry x="5" y="102" width="401" height="281" as="geometry" />
        </mxCell>
        <mxCell id="gvaRYK3WcbsX880E4bqF-2" value="" style="ellipse;whiteSpace=wrap;html=1;" vertex="1" parent="1">
          <mxGeometry x="441" y="102" width="401" height="286" as="geometry" />
        </mxCell>
      </root>
    </mxGraphModel>
  </diagram>
</mxfile>
